<svg aria-hidden="true" style="position: absolute; width: 0; height: 0; overflow: hidden;" version="1.1" xmlns="http://www.w3.org/2000/svg" xmlns:xlink="http://www.w3.org/1999/xlink">
<defs>
<symbol id="icon-address" viewBox="0 0 32 32">
<path d="M16 1.333c-5.881 0-10.667 4.785-10.667 10.667 0 4.309 5.419 11.939 8.651 16.103 0.487 0.627 1.222 0.987 2.016 0.987s1.529-0.36 2.017-0.987c3.231-4.164 8.65-11.793 8.65-16.103 0-5.881-4.785-10.667-10.667-10.667zM16 7.333c1.473 0 2.667 1.194 2.667 2.667s-1.194 2.667-2.667 2.667-2.667-1.194-2.667-2.667c0-1.473 1.194-2.667 2.667-2.667zM20.667 15.835c0 1.482-1.891 2.832-4.667 2.832s-4.667-1.35-4.667-2.832v-0.869c0-0.533 0.432-0.965 0.965-0.965h7.403c0.533 0 0.965 0.432 0.965 0.965v0.869z"></path>
</symbol>
<symbol id="icon-email" viewBox="0 0 32 32">
<path d="M6.667 5.333c-2.093 0-3.814 1.613-3.987 3.667l13.32 7.193 13.32-7.193c-0.173-2.053-1.894-3.667-3.987-3.667h-18.667zM2.667 11.26v11.406c0 2.207 1.793 4 4 4h18.667c2.207 0 4-1.793 4-4v-11.406l-12.859 6.953c-0.147 0.080-0.307 0.12-0.474 0.12s-0.327-0.040-0.474-0.12l-12.859-6.953z"></path>
</symbol>
<symbol id="icon-minus" viewBox="0 0 32 32">
<path d="M4.667 14.667c-0.006-0-0.012-0-0.019-0-0.736 0-1.333 0.597-1.333 1.333s0.597 1.333 1.333 1.333c0.007 0 0.013-0 0.020-0h22.666c0.006 0 0.012 0 0.019 0 0.736 0 1.333-0.597 1.333-1.333s-0.597-1.333-1.333-1.333c-0.007 0-0.013 0-0.020 0h-22.666z"></path>
</symbol>
<symbol id="icon-phone" viewBox="0 0 32 32">
<path d="M15.277 4.417l1.146 2.703c0.499 1.178 0.223 2.563-0.685 3.425l-2.141 2.032c-0.241 0.229-0.367 0.562-0.313 0.89 0.207 1.254 0.665 2.491 1.374 3.711 0.708 1.217 1.57 2.253 2.587 3.107 0.269 0.226 0.643 0.285 0.977 0.173l2.498-0.833c1.15-0.383 2.402 0.057 3.107 1.093l1.643 2.414c0.82 1.205 0.673 2.866-0.345 3.887l-1.091 1.095c-1.085 1.089-2.635 1.485-4.069 1.037-3.385-1.056-6.497-4.191-9.337-9.405-2.844-5.221-3.847-9.652-3.011-13.291 0.352-1.531 1.442-2.751 2.865-3.205l1.435-0.459c1.347-0.429 2.783 0.266 3.359 1.625z"></path>
</symbol>
<symbol id="icon-plus" viewBox="0 0 32 32">
<path d="M15.98 3.315c-0.728 0.011-1.314 0.604-1.314 1.333 0 0.006 0 0.013 0 0.019v-0.001 10h-10c-0.006-0-0.012-0-0.019-0-0.736 0-1.333 0.597-1.333 1.333s0.597 1.333 1.333 1.333c0.007 0 0.013-0 0.020-0h9.999v10c-0 0.006-0 0.012-0 0.019 0 0.736 0.597 1.333 1.333 1.333s1.333-0.597 1.333-1.333c0-0.007-0-0.013-0-0.020v0.001-10h10c0.006 0 0.012 0 0.019 0 0.736 0 1.333-0.597 1.333-1.333s-0.597-1.333-1.333-1.333c-0.007 0-0.013 0-0.020 0h-9.999v-10c0-0.005 0-0.012 0-0.018 0-0.736-0.597-1.333-1.333-1.333-0.007 0-0.014 0-0.021 0h0.001z"></path>
</symbol>
<symbol id="icon-send" viewBox="0 0 32 32">
<path d="M3.887 15.744c8.379-3.686 19.221-8.18 20.718-8.802 3.926-1.628 5.131-1.316 4.53 2.289-0.431 2.591-1.676 11.171-2.668 16.511-0.589 3.167-1.909 3.542-3.986 2.172-0.999-0.659-6.039-3.993-7.133-4.775-0.999-0.713-2.376-1.571-0.649-3.261 0.615-0.602 4.644-4.449 7.783-7.444 0.411-0.393-0.105-1.039-0.58-0.724-4.231 2.806-10.098 6.701-10.845 7.208-1.128 0.766-2.211 1.117-4.156 0.559-1.469-0.422-2.905-0.925-3.463-1.117-2.151-0.739-1.641-1.695 0.449-2.615z"></path>
</symbol>
<symbol id="icon-up" viewBox="0 0 32 32">
<path d="M7.609 14.943l7.057-7.057v19.447c0 0.736 0.597 1.333 1.333 1.333s1.333-0.597 1.333-1.333v-19.447l7.057 7.057c0.26 0.26 0.601 0.39 0.943 0.39s0.683-0.13 0.943-0.391c0.521-0.521 0.521-1.365 0-1.885l-9.333-9.333c-0.52-0.521-1.365-0.521-1.885 0l-9.333 9.333c-0.521 0.521-0.521 1.365 0 1.885s1.365 0.521 1.885 0z"></path>
</symbol>
</defs>
</svg>
