<svg aria-hidden="true" style="position: absolute; width: 0; height: 0; overflow: hidden;" version="1.1"
     xmlns="http://www.w3.org/2000/svg" xmlns:xlink="http://www.w3.org/1999/xlink">
    <defs>
        <symbol id="icon-media-entreprenuer" viewBox="0 0 32 32">
            <path
                  d="M16 1.875c-5.525 0-10.050 4.275-10.375 9.775-1.2 0.275-2 1.475-1.775 2.7l0.85 4.775c0.2 1.125 1.175 1.95 2.325 1.95 0.125 0 0.275-0 0.4-0.025l2.025-0.35c0.4-0.075 0.675-0.45 0.6-0.875l-1.025-5.775c0.475-0.85 0.975-1.35 1.525-1.525 1.050-0.325 2.5 0.425 4.175 1.3 1.95 1.025 4.325 2.25 7.050 2.25 0.3 0 0.6-0.025 0.9-0.050l-0.6 3.875v0.025c-2.3 5.125-5.025 5.675-6.1 5.675-1.050 0-3.1-0.5-5.1-3.775-0.225-0.35-0.675-0.475-1.025-0.25s-0.475 0.675-0.25 1.025c2.375 3.925 5.025 4.5 6.375 4.5 3.825 0 6.25-4.025 7.325-6.25l1.275 0.2c0.125 0.025 0.275 0.025 0.4 0.025 1.15 0 2.125-0.825 2.325-1.95l0.85-4.775c0.225-1.225-0.575-2.4-1.775-2.7-0.325-5.475-4.875-9.775-10.375-9.775zM16.025 3.325c4.575 0 8.375 3.475 8.85 8l-0.4-0.075c-1.050-4.45-4.075-7.025-8.475-7.025-3.825 0-6.65 1.975-7.975 5.525-0.15 0.4 0.050 0.825 0.45 0.975s0.825-0.050 0.975-0.45c1.075-2.975 3.35-4.625 6.55-4.55 6.2 0.15 5.45 8.725 5.45 8.725-2.85 0.425-3.825-0.85-6.025-2-1.975-1.025-3.675-1.925-5.325-1.4-0.525 0.175-1 0.475-1.425 0.9l-0.025-0.125c-0.025-0.2-0.15-0.375-0.3-0.475-0.175-0.125-0.375-0.15-0.55-0.125l-0.625 0.1c0.475-4.525 4.25-8 8.85-8zM7.3 12.875l1.125 6.475-1.275 0.225c-0.050 0-0.1 0.025-0.15 0.025-0.425 0-0.775-0.3-0.85-0.725l-0.85-4.775c-0.075-0.475 0.225-0.925 0.7-1l1.3-0.225zM24.7 12.875l1.275 0.225c0.475 0.075 0.775 0.525 0.7 1l-0.85 4.775c-0.075 0.425-0.425 0.725-0.85 0.725-0.050 0-0.1 0-0.15-0.025l-1.15-0.2 1.025-6.5zM12.9 26.85c-0.025 0-0.050-0-0.075 0.025h-0.025c-0.025 0-0.025-0-0.050 0.025h-0.050l-5.525 2.25c-0.375 0.15-0.575 0.6-0.4 0.975 0.125 0.325 0.425 0.5 0.725 0.5 0.1 0 0.2-0.025 0.275-0.050l4.825-1.975c0.65 1.25 1.925 2.025 3.4 2.025s2.75-0.775 3.4-2.025l4.825 1.975c0.1 0.050 0.2 0.050 0.275 0.050 0.3 0 0.575-0.175 0.7-0.475 0.15-0.375-0.025-0.825-0.4-0.975l-5.525-2.25c-0.375-0.15-0.825 0.025-0.975 0.4 0 0.025-0.025 0.050-0.025 0.075-0.375 1.275-1.4 1.725-2.275 1.725-0.85 0-1.9-0.45-2.275-1.725 0-0.025 0-0.025-0.025-0.050v-0.050c0 0-0-0.025-0.025-0.025 0-0.025-0.025-0.050-0.025-0.075s-0.025-0.050-0.050-0.050c-0.025-0.025-0.025-0.050-0.050-0.050l-0.050-0.050-0.050-0.050c-0.025-0.025-0.050-0.025-0.050-0.050-0.025 0-0.050-0.025-0.050-0.025-0.025 0-0.050-0.025-0.075-0.025s-0.050-0.025-0.075-0.025c-0.025 0-0.050 0-0.075-0.025h-0.225z">
            </path>
        </symbol>
        <symbol id="icon-market-strategy" viewBox="0 0 32 32">
            <path
                  d="M4.75 25.75c1.8 0 3.25-1.45 3.25-3.25 0-0.25-0.025-0.5-0.1-0.75l2.050-1.25c0.35-0.225 0.475-0.675 0.25-1.025s-0.675-0.475-1.025-0.25l-1.95 1.175c-0.575-0.7-1.475-1.15-2.475-1.15-1.8 0-3.25 1.45-3.25 3.25s1.45 3.25 3.25 3.25zM4.75 20.75c0.975 0 1.75 0.775 1.75 1.75s-0.775 1.75-1.75 1.75-1.75-0.775-1.75-1.75 0.775-1.75 1.75-1.75zM24 9.5c0 0.35 0.050 0.7 0.175 1.025l-2 1.125c-0.35 0.2-0.475 0.65-0.275 1.025 0.2 0.35 0.65 0.475 1.025 0.275l2.050-1.175c0.6 0.6 1.4 0.95 2.3 0.95 1.8 0 3.25-1.45 3.25-3.25s-1.45-3.25-3.25-3.25-3.275 1.475-3.275 3.275zM29 9.5c0 0.975-0.775 1.75-1.75 1.75s-1.75-0.775-1.75-1.75 0.775-1.75 1.75-1.75 1.75 0.775 1.75 1.75zM16 9.25c0.425 0 0.75-0.325 0.75-0.75v-2.1c1.425-0.35 2.5-1.625 2.5-3.15 0-1.8-1.45-3.25-3.25-3.25s-3.25 1.45-3.25 3.25c0 1.525 1.075 2.825 2.5 3.15v2.1c0 0.425 0.325 0.75 0.75 0.75zM14.25 3.25c0-0.975 0.775-1.75 1.75-1.75s1.75 0.775 1.75 1.75-0.775 1.75-1.75 1.75c-0.975 0-1.75-0.775-1.75-1.75zM30.5 22.5c0-1.8-1.45-3.25-3.25-3.25-1 0-1.875 0.45-2.475 1.15l-1.95-1.175c-0.35-0.225-0.825-0.1-1.025 0.25-0.225 0.35-0.1 0.825 0.25 1.025l2.050 1.25c-0.050 0.25-0.1 0.5-0.1 0.75 0 1.8 1.45 3.25 3.25 3.25s3.25-1.45 3.25-3.25zM27.25 24.25c-0.975 0-1.75-0.775-1.75-1.75s0.775-1.75 1.75-1.75 1.75 0.775 1.75 1.75-0.775 1.75-1.75 1.75zM4.75 12.75c0.925 0 1.75-0.4 2.35-1l2.025 1.175c0.35 0.2 0.825 0.075 1.025-0.275s0.075-0.825-0.275-1.025l-2.025-1.15c0.1-0.3 0.15-0.625 0.15-0.95 0-1.8-1.45-3.25-3.25-3.25s-3.25 1.425-3.25 3.225 1.45 3.25 3.25 3.25zM4.75 7.75c0.975 0 1.75 0.775 1.75 1.75s-0.775 1.75-1.75 1.75-1.75-0.775-1.75-1.75 0.775-1.75 1.75-1.75zM9 28.75c0 0.425 0.325 0.75 0.75 0.75s0.75-0.325 0.75-0.75c0-3.025 2.475-5.5 5.5-5.5s5.5 2.475 5.5 5.5c0 0.425 0.325 0.75 0.75 0.75s0.75-0.325 0.75-0.75c0-3.85-3.15-7-7-7s-7 3.125-7 7zM16 20.5c2.475 0 4.5-2.025 4.5-4.5s-2.025-4.5-4.5-4.5c-2.475 0-4.5 2.025-4.5 4.5s2.025 4.5 4.5 4.5zM16 13c1.65 0 3 1.35 3 3s-1.35 3-3 3c-1.65 0-3-1.35-3-3s1.35-3 3-3z">
            </path>
        </symbol>
        <symbol id="icon-fund-raise" viewBox="0 0 32 32">
            <path
                  d="M29.375 14.25c-1.3 0-2.375 1.075-2.375 2.375v8.675c0 1.475-1.050 2.725-2.525 2.95l-12 1.925c-0.225 0.075-0.475 0.075-0.7 0.075-1.15 0-2.25-0.45-3.075-1.25l-6.575-6.35c-0.5-0.475-0.5-1.275-0.025-1.775 0.25-0.25 0.55-0.375 0.9-0.375 0.325 0 0.625 0.125 0.875 0.35l3.175 3.050c0 0 0 0 0 0s0 0 0 0l2.525 2.45c0.975 0.925 2.375 1.175 3.6 0.625l7.675-3.5c1.025-0.475 1.65-1.5 1.6-2.6-0.050-1.475-1.275-2.625-2.75-2.625h-5.125c-0.7 0-1.275-0.5-1.325-1.175-0.025-0.35 0.1-0.675 0.325-0.95 0.25-0.25 0.575-0.4 0.9-0.4h6.175c0.55 0 1.075 0.1 1.575 0.3l1.6 0.65c0.375 0.15 0.825-0.025 0.975-0.425 0.15-0.375-0.025-0.825-0.425-0.975l-1.6-0.65c-0.675-0.275-1.4-0.4-2.125-0.4h-6.15c-0.75 0-1.5 0.325-2 0.875-0.525 0.55-0.775 1.3-0.725 2.050 0.075 1.475 1.3 2.6 2.8 2.6h5.15c0.675 0 1.2 0.525 1.25 1.2 0.025 0.5-0.275 0.975-0.725 1.175l-4.825 2.2-1.95-1.85-2.575-2.5c-0.525-0.5-1.2-0.775-1.9-0.775-0.75 0-1.45 0.3-1.975 0.85-0.325 0.325-0.525 0.7-0.65 1.1l-1.4-1.375c-0.525-0.5-1.2-0.775-1.9-0.775-0.75 0-1.45 0.3-1.975 0.85-1.125 1.075-1.1 2.825 0 3.875l6.575 6.375c1.1 1.075 2.575 1.675 4.1 1.675 0.325 0 0.625-0.025 0.95-0.075l12-1.925c2.2-0.35 3.775-2.225 3.775-4.45v-8.7c0-0.475 0.4-0.875 0.875-0.875s0.875 0.4 0.875 0.875v5.625c0 0.425 0.325 0.75 0.75 0.75s0.75-0.325 0.75-0.75v-5.625c0-1.3-1.075-2.375-2.375-2.375zM8.050 21.075c0.25-0.25 0.55-0.375 0.9-0.375 0.325 0 0.625 0.125 0.875 0.35l2.6 2.5 1.525 1.45-1.375 0.625c-0.65 0.3-1.425 0.175-1.95-0.325l-2.525-2.45c0 0 0 0 0 0-0.525-0.5-0.525-1.275-0.050-1.775zM31 26.5c-0.425 0-0.75 0.325-0.75 0.75v2.5c0 0.425 0.325 0.75 0.75 0.75s0.75-0.325 0.75-0.75v-2.5c0-0.425-0.325-0.75-0.75-0.75zM7.775 10.825c-0.15-0.4-0.575-0.6-0.95-0.45-0.4 0.15-0.6 0.575-0.45 0.95 0.225 0.625 0.925 1.325 2.975 1.325 0.225 0 0.475 0 0.75-0.025 0.425-0.025 0.725-0.4 0.7-0.8-0.025-0.425-0.4-0.725-0.8-0.7-1.7 0.15-2.2-0.225-2.225-0.3zM12.725 2.5c-0.15-0.4-0.575-0.6-0.95-0.45-1.95 0.7-3.7 1.625-4.95 2.575-1.875 1.45-1.975 2.525-1.725 3.175 0.225 0.625 0.925 1.325 2.975 1.325 0.225 0 0.475 0 0.75-0.025 0.425-0.025 0.725-0.4 0.7-0.8s-0.4-0.725-0.8-0.7c-1.675 0.125-2.175-0.25-2.2-0.325s0.1-0.6 1.25-1.475c1.125-0.85 2.725-1.7 4.55-2.35 0.35-0.125 0.55-0.55 0.4-0.95zM19.225 7.675c-1.125 0.85-2.725 1.7-4.55 2.35-0.525 0.2-1.075 0.375-1.6 0.525-0.4 0.1-0.625 0.525-0.525 0.925 0.1 0.325 0.4 0.55 0.725 0.55 0.075 0 0.125 0 0.2-0.025 0.575-0.15 1.15-0.35 1.725-0.55 1.95-0.7 3.7-1.625 4.95-2.575 1.875-1.45 1.975-2.525 1.725-3.175l-1.275-3.525c0 0 0 0 0 0-0.225-0.6-0.9-1.325-2.95-1.325 0 0 0 0 0 0-0.425 0-0.75 0.325-0.75 0.75s0.325 0.75 0.75 0.75c1.175 0 1.525 0.275 1.55 0.35 0.125 0.35-1.425 2.25-5.775 3.825-0.225 0.075-0.425 0.15-0.65 0.225-0.4 0.125-0.6 0.55-0.475 0.95 0.1 0.325 0.4 0.525 0.7 0.525 0.075 0 0.15 0 0.225-0.050 0.225-0.075 0.45-0.15 0.675-0.225 2.375-0.85 4.7-2.125 5.925-3.45l0.625 1.75c0.025 0.025-0.075 0.55-1.225 1.425z">
            </path>
        </symbol>
        <symbol id="icon-brand-manage" viewBox="0 0 32 32">
            <path
                  d="M5.5 2.75c-1.8 0-3.25 1.45-3.25 3.25s1.45 3.25 3.25 3.25c1.8 0 3.25-1.45 3.25-3.25s-1.45-3.25-3.25-3.25zM18.5 3c-1.125 0-2.075 0.725-2.375 1.75h-3.125c-0.425 0-0.75 0.325-0.75 0.75s0.325 0.75 0.75 0.75h3.125c0.325 1.025 1.275 1.75 2.375 1.75h4c1.125 0 2.075-0.725 2.375-1.75h3.625c0.975 0 1.75 0.775 1.75 1.75v20.5c0 0.975-0.775 1.75-1.75 1.75h-16.5c-0.425 0-0.75 0.325-0.75 0.75s0.325 0.75 0.75 0.75h16.5c1.8 0 3.25-1.45 3.25-3.25v-20.5c0-1.8-1.45-3.25-3.25-3.25h-3.625c-0.325-1.025-1.275-1.75-2.375-1.75h-4zM5.5 4.25c0.975 0 1.75 0.775 1.75 1.75s-0.775 1.75-1.75 1.75c-0.975 0-1.75-0.775-1.75-1.75s0.775-1.75 1.75-1.75zM18.5 4.5h4c0.55 0 1 0.45 1 1s-0.45 1-1 1h-4c-0.55 0-1-0.45-1-1s0.45-1 1-1zM3.5 10.25c-1.8 0-3.25 1.45-3.25 3.25v7.5c0 0.425 0.325 0.75 0.75 0.75s0.75-0.325 0.75-0.75v-7.5c0-0.975 0.775-1.75 1.75-1.75h14.25c0.425 0 0.75-0.325 0.75-0.75s-0.325-0.75-0.75-0.75h-14.25zM8.5 14c-0.425 0-0.75 0.325-0.75 0.75v16.25c0 0.425 0.325 0.75 0.75 0.75s0.75-0.325 0.75-0.75v-16.25c0-0.425-0.325-0.75-0.75-0.75zM5.5 21.5c-0.425 0-0.75 0.325-0.75 0.75v8.75c0 0.425 0.325 0.75 0.75 0.75s0.75-0.325 0.75-0.75v-8.75c0-0.425-0.325-0.75-0.75-0.75zM2.5 24.075c-0.425 0-0.75 0.325-0.75 0.75v6.175c0 0.425 0.325 0.75 0.75 0.75s0.75-0.325 0.75-0.75v-6.175c0-0.425-0.325-0.75-0.75-0.75z">
            </path>
        </symbol>
        <symbol id="icon-email" viewBox="0 0 32 32">
            <path
                  d="M6.667 5.333c-2.093 0-3.814 1.613-3.987 3.667l13.32 7.193 13.32-7.193c-0.173-2.053-1.894-3.667-3.987-3.667h-18.667zM2.667 11.26v11.406c0 2.207 1.793 4 4 4h18.667c2.207 0 4-1.793 4-4v-11.406l-12.859 6.953c-0.147 0.080-0.307 0.12-0.474 0.12s-0.327-0.040-0.474-0.12l-12.859-6.953z">
            </path>
        </symbol>
        <symbol id="icon-minus" viewBox="0 0 32 32">
            <path
                  d="M4.667 14.667c-0.006-0-0.012-0-0.019-0-0.736 0-1.333 0.597-1.333 1.333s0.597 1.333 1.333 1.333c0.007 0 0.013-0 0.020-0h22.666c0.006 0 0.012 0 0.019 0 0.736 0 1.333-0.597 1.333-1.333s-0.597-1.333-1.333-1.333c-0.007 0-0.013 0-0.020 0h-22.666z">
            </path>
        </symbol>
        <symbol id="icon-phone" viewBox="0 0 32 32">
            <path
                  d="M15.277 4.417l1.146 2.703c0.499 1.178 0.223 2.563-0.685 3.425l-2.141 2.032c-0.241 0.229-0.367 0.562-0.313 0.89 0.207 1.254 0.665 2.491 1.374 3.711 0.708 1.217 1.57 2.253 2.587 3.107 0.269 0.226 0.643 0.285 0.977 0.173l2.498-0.833c1.15-0.383 2.402 0.057 3.107 1.093l1.643 2.414c0.82 1.205 0.673 2.866-0.345 3.887l-1.091 1.095c-1.085 1.089-2.635 1.485-4.069 1.037-3.385-1.056-6.497-4.191-9.337-9.405-2.844-5.221-3.847-9.652-3.011-13.291 0.352-1.531 1.442-2.751 2.865-3.205l1.435-0.459c1.347-0.429 2.783 0.266 3.359 1.625z">
            </path>
        </symbol>
        <symbol id="icon-plus" viewBox="0 0 32 32">
            <path
                  d="M15.98 3.315c-0.728 0.011-1.314 0.604-1.314 1.333 0 0.006 0 0.013 0 0.019v-0.001 10h-10c-0.006-0-0.012-0-0.019-0-0.736 0-1.333 0.597-1.333 1.333s0.597 1.333 1.333 1.333c0.007 0 0.013-0 0.020-0h9.999v10c-0 0.006-0 0.012-0 0.019 0 0.736 0.597 1.333 1.333 1.333s1.333-0.597 1.333-1.333c0-0.007-0-0.013-0-0.020v0.001-10h10c0.006 0 0.012 0 0.019 0 0.736 0 1.333-0.597 1.333-1.333s-0.597-1.333-1.333-1.333c-0.007 0-0.013 0-0.020 0h-9.999v-10c0-0.005 0-0.012 0-0.018 0-0.736-0.597-1.333-1.333-1.333-0.007 0-0.014 0-0.021 0h0.001z">
            </path>
        </symbol>
        <symbol id="icon-send" viewBox="0 0 32 32">
            <path
                  d="M3.887 15.744c8.379-3.686 19.221-8.18 20.718-8.802 3.926-1.628 5.131-1.316 4.53 2.289-0.431 2.591-1.676 11.171-2.668 16.511-0.589 3.167-1.909 3.542-3.986 2.172-0.999-0.659-6.039-3.993-7.133-4.775-0.999-0.713-2.376-1.571-0.649-3.261 0.615-0.602 4.644-4.449 7.783-7.444 0.411-0.393-0.105-1.039-0.58-0.724-4.231 2.806-10.098 6.701-10.845 7.208-1.128 0.766-2.211 1.117-4.156 0.559-1.469-0.422-2.905-0.925-3.463-1.117-2.151-0.739-1.641-1.695 0.449-2.615z">
            </path>
        </symbol>
        <symbol id="icon-up" viewBox="0 0 32 32">
            <path
                  d="M7.609 14.943l7.057-7.057v19.447c0 0.736 0.597 1.333 1.333 1.333s1.333-0.597 1.333-1.333v-19.447l7.057 7.057c0.26 0.26 0.601 0.39 0.943 0.39s0.683-0.13 0.943-0.391c0.521-0.521 0.521-1.365 0-1.885l-9.333-9.333c-0.52-0.521-1.365-0.521-1.885 0l-9.333 9.333c-0.521 0.521-0.521 1.365 0 1.885s1.365 0.521 1.885 0z">
            </path>
        </symbol>
    </defs>
</svg>